<svg width="44" height="43" viewBox="0 0 44 43" fill="none" xmlns="http://www.w3.org/2000/svg">
<path d="M10.505 10.17H19.22L18.585 9.72501C17.025 8.63501 15.165 8.04501 13.26 8.04501H8.38V12.925C8.38 14.83 8.96501 16.69 10.06 18.25L10.505 18.885V10.17Z" fill="#fff"/>
<path d="M10.505 24.115L10.06 24.75C8.97001 26.31 8.38 28.17 8.38 30.075V34.955H13.26C15.165 34.955 17.025 34.37 18.585 33.275L19.22 32.83H10.505V24.115Z" fill="#fff"/>
<path d="M39.255 28.335C39.99 26.03 41.165 23.89 42.715 22.035L43.16 21.5L42.715 20.965C41.165 19.11 39.99 16.97 39.255 14.665L38.99 13.84V11.04C38.99 9.18501 39.125 7.33001 39.39 5.49501L39.655 3.67501L37.835 3.94001C36 4.20501 34.145 4.34001 32.29 4.34001H29.49L28.66 4.07501C26.355 3.34001 24.22 2.16501 22.365 0.615009L21.83 0.165009L21.295 0.615009C19.44 2.16501 17.305 3.34001 15 4.07501L14.17 4.34001H11.37C9.515 4.34001 7.66 4.20501 5.825 3.94001L4.005 3.67501L4.27 5.49501C4.535 7.33001 4.67 9.18501 4.67 11.04V13.84L4.405 14.665C3.67 16.97 2.495 19.11 0.945 20.965L0.5 21.5L0.95 22.035C2.5 23.89 3.675 26.025 4.41 28.33L4.675 29.16V31.96C4.675 33.815 4.54 35.67 4.275 37.505L4.01 39.325L5.83 39.06C7.665 38.795 9.52 38.66 11.375 38.66H14.175L15.005 38.925C17.32 39.66 19.44 40.825 21.3 42.385L21.835 42.83L22.37 42.385C24.235 40.825 26.35 39.66 28.665 38.925L29.495 38.66H32.295C34.15 38.66 36.005 38.795 37.84 39.06L39.66 39.325L39.395 37.505C39.13 35.67 38.995 33.815 38.995 31.96V29.16L39.26 28.335H39.255ZM37.93 37.6H29.49L28.66 37.335C26.345 36.6 24.225 35.435 22.365 33.875L21.83 33.43L21.295 33.875C19.43 35.435 17.315 36.6 15 37.335L14.175 37.6H5.73V29.16L5.995 28.335C6.73 26.02 7.895 23.9 9.455 22.04L9.9 21.505L9.455 20.97C7.895 19.105 6.73 16.99 5.995 14.675L5.73 13.845V5.40001H14.17L15 5.66501C17.315 6.40001 19.435 7.56501 21.295 9.12501L21.83 9.57001L22.365 9.12501C24.23 7.56501 26.345 6.40001 28.66 5.66501L29.49 5.40001H37.93V13.84L37.665 14.67C36.93 16.985 35.765 19.105 34.205 20.965L33.76 21.5L34.205 22.035C35.765 23.9 36.93 26.015 37.665 28.33L37.93 29.16V37.6ZM41.005 21.5C39.985 22.81 39.13 24.225 38.46 25.735C37.79 24.225 36.94 22.81 35.915 21.5C36.94 20.19 37.79 18.775 38.46 17.265C39.13 18.775 39.98 20.19 41.005 21.5ZM21.83 2.32501C23.14 3.34501 24.555 4.20001 26.065 4.87001C24.555 5.54001 23.14 6.39001 21.83 7.41501C20.52 6.39001 19.105 5.54001 17.595 4.87001C19.105 4.20001 20.52 3.35001 21.83 2.32501ZM2.66 21.5C3.685 20.19 4.535 18.775 5.205 17.265C5.875 18.775 6.725 20.19 7.75 21.5C6.73 22.81 5.875 24.225 5.205 25.735C4.535 24.225 3.685 22.81 2.66 21.5ZM21.83 40.675C20.52 39.65 19.105 38.8 17.595 38.13C19.105 37.46 20.52 36.61 21.83 35.585C23.14 36.61 24.555 37.46 26.065 38.13C24.555 38.8 23.14 39.65 21.83 40.675Z" fill="#fff"/>
<path d="M35.28 9.11002V8.05002H30.4C28.495 8.05002 26.635 8.63502 25.075 9.73002L24.44 10.175H33.11C32.775 14.405 30.455 18.08 27.08 20.275C25.07 19.205 22.665 18.565 20.235 18.485C19.9 18.475 19.57 18.44 19.24 18.4L17.425 18.17L17.575 19.795C17.68 20.935 17.68 22.08 17.575 23.215L17.425 24.84L19.24 24.61C19.57 24.57 19.9 24.535 20.235 24.525C22.665 24.445 25.07 23.805 27.08 22.735C30.455 24.925 32.775 28.605 33.11 32.835H24.44L25.075 33.28C26.635 34.37 28.495 34.96 30.4 34.96H35.28V33.9C35.28 28.83 32.82 24.325 29.03 21.51C32.82 18.7 35.28 14.19 35.28 9.12002V9.11002ZM19.715 22.56V20.435C21.415 20.435 23.2 20.91 24.695 21.495C23.195 22.08 21.415 22.555 19.715 22.555V22.56Z" fill="#fff"/>
</svg>
